<?xml version="1.0" standalone="no"?>
<!DOCTYPE svg PUBLIC "-//W3C//DTD SVG 20010904//EN"
 "http://www.w3.org/TR/2001/REC-SVG-20010904/DTD/svg10.dtd">
<svg version="1.0" xmlns="http://www.w3.org/2000/svg"
 width="512.000000pt" height="512.000000pt" viewBox="0 0 512.000000 512.000000"
 preserveAspectRatio="xMidYMid meet">
<metadata>
Created by potrace 1.11, written by Peter Selinger 2001-2013
</metadata>
<g transform="translate(0.000000,512.000000) scale(0.100000,-0.100000)"
fill="#000000" stroke="none">
<path d="M381 3680 c0 -237 -5 -263 -55 -313 -36 -36 -61 -41 -198 -42 l-118
0 0 -242 0 -242 165 1 c91 1 167 -1 170 -3 2 -3 5 -230 6 -505 0 -353 4 -518
13 -564 55 -286 211 -457 486 -533 66 -18 112 -21 368 -25 l292 -4 -2 258 -3
257 -177 2 c-175 1 -177 2 -235 31 -43 22 -65 41 -88 78 l-30 49 -3 479 -3
478 43 1 c24 0 148 0 276 1 l232 0 -2 241 -3 242 -273 0 -272 0 0 288 0 287
-295 0 -294 0 0 -220z"/>
<path d="M3981 3682 c0 -253 -9 -290 -77 -333 -36 -22 -50 -24 -166 -24 l-128
0 0 -241 0 -242 166 0 c91 0 168 -2 170 -4 2 -3 4 -227 5 -499 0 -521 4 -569
48 -699 62 -178 197 -314 377 -379 113 -41 195 -50 472 -51 l262 -1 0 258 0
258 -158 -1 c-224 -1 -296 23 -350 114 l-27 47 0 479 0 478 273 0 272 0 0 242
0 243 -262 1 c-145 0 -269 1 -275 1 -10 1 -13 65 -13 286 l0 285 -295 0 -294
0 0 -218z"/>
<path d="M2698 3375 c-1 -2 -21 -6 -42 -9 -148 -24 -319 -125 -397 -236 -45
-65 -54 -51 -54 79 l-1 116 -289 0 -290 0 -3 -1057 -2 -1058 310 0 310 0 0
613 c1 336 3 630 6 652 14 97 81 213 151 263 181 128 433 57 515 -146 l23 -57
3 -662 3 -663 310 0 309 0 -1 748 c0 411 -5 773 -10 804 -40 244 -172 434
-371 531 -126 62 -198 79 -350 82 -69 2 -128 2 -130 0z"/>
</g>
</svg>
